<svg width="161" height="66" viewBox="0 0 161 66" fill="none" xmlns="http://www.w3.org/2000/svg">
<mask id="path-1-outside-1_10601_4919" maskUnits="userSpaceOnUse" x="48.0664" y="32.2556" width="104" height="17" fill="black">
<rect fill="white" x="48.0664" y="32.2556" width="104" height="17"/>
<path d="M51.9722 47.9999H50.0664L55.5785 33.4545H57.455L62.967 47.9999H61.0613L56.5754 35.7556H56.4581L51.9722 47.9999ZM52.6759 42.3181H60.3576V43.8806H52.6759V42.3181Z"/>
<path d="M65.3053 47.9999V33.4545H70.3776C71.5553 33.4545 72.5179 33.6604 73.2656 34.0724C74.0181 34.4796 74.5752 35.0312 74.9368 35.7272C75.2984 36.4232 75.4792 37.1997 75.4792 38.0568C75.4792 38.9138 75.2984 39.6926 74.9368 40.3934C74.5801 41.0942 74.0279 41.6529 73.2802 42.0695C72.5326 42.4815 71.5748 42.6874 70.4069 42.6874H66.7713V41.1249H70.3483C71.1546 41.1249 71.802 40.99 72.2907 40.7201C72.7794 40.4502 73.1336 40.0856 73.3535 39.6264C73.5783 39.1623 73.6907 38.6391 73.6907 38.0568C73.6907 37.4744 73.5783 36.9535 73.3535 36.4943C73.1336 36.035 72.7769 35.6751 72.2834 35.4147C71.7898 35.1496 71.135 35.017 70.3189 35.017H67.1231V47.9999H65.3053Z"/>
<path d="M83.2159 48.1988C82.2484 48.1988 81.3859 48.0378 80.6285 47.7158C79.8759 47.3939 79.2773 46.9464 78.8326 46.3735C78.3928 45.7959 78.1534 45.1259 78.1143 44.3636H79.9614C80.0005 44.8323 80.1667 45.2372 80.4599 45.5781C80.7531 45.9142 81.1367 46.1747 81.6107 46.3593C82.0847 46.544 82.61 46.6363 83.1866 46.6363C83.8316 46.6363 84.4034 46.5274 84.9018 46.3096C85.4002 46.0918 85.7912 45.7888 86.0746 45.4005C86.358 45.0122 86.4997 44.5624 86.4997 44.0511C86.4997 43.516 86.3629 43.0449 86.0892 42.6377C85.8156 42.2258 85.4149 41.9038 84.8871 41.6718C84.3594 41.4398 83.7144 41.3238 82.952 41.3238H81.7499V39.7613H82.952C83.5482 39.7613 84.0711 39.6571 84.5206 39.4488C84.9751 39.2405 85.3294 38.9469 85.5835 38.5681C85.8425 38.1893 85.972 37.7443 85.972 37.2329C85.972 36.7405 85.8596 36.312 85.6348 35.9474C85.41 35.5828 85.0924 35.2987 84.6819 35.0951C84.2763 34.8915 83.7974 34.7897 83.2452 34.7897C82.7273 34.7897 82.2386 34.882 81.7793 35.0667C81.3248 35.2466 80.9534 35.5094 80.6651 35.855C80.3768 36.196 80.2204 36.6079 80.196 37.0908H78.4368C78.4661 36.3285 78.7031 35.6609 79.1478 35.088C79.5925 34.5103 80.174 34.0605 80.8923 33.7386C81.6156 33.4166 82.4096 33.2556 83.2746 33.2556C84.203 33.2556 84.9995 33.4379 85.6641 33.8025C86.3287 34.1623 86.8393 34.6382 87.1961 35.23C87.5528 35.8219 87.7311 36.4611 87.7311 37.1477C87.7311 37.9668 87.5088 38.6652 87.0641 39.2428C86.6243 39.8205 86.0257 40.2206 85.2683 40.4431V40.5568C86.2163 40.7083 86.9566 41.0989 87.4893 41.7286C88.0219 42.3536 88.2882 43.1278 88.2882 44.0511C88.2882 44.8418 88.0659 45.552 87.6212 46.1818C87.1814 46.8068 86.5804 47.2992 85.818 47.659C85.0557 48.0189 84.1884 48.1988 83.2159 48.1988Z"/>
<path d="M91.55 33.4545H93.7197L98.8213 45.5283H98.9972L104.099 33.4545H106.268V47.9999H104.568V36.9488H104.421L99.7302 47.9999H98.0883L93.3972 36.9488H93.2506V47.9999H91.55V33.4545Z"/>
<path d="M122.579 40.7272C122.579 42.2613 122.294 43.5871 121.722 44.7045C121.15 45.8219 120.366 46.6836 119.369 47.2897C118.372 47.8958 117.233 48.1988 115.953 48.1988C114.673 48.1988 113.534 47.8958 112.537 47.2897C111.541 46.6836 110.756 45.8219 110.184 44.7045C109.613 43.5871 109.327 42.2613 109.327 40.7272C109.327 39.1931 109.613 37.8674 110.184 36.7499C110.756 35.6325 111.541 34.7708 112.537 34.1647C113.534 33.5586 114.673 33.2556 115.953 33.2556C117.233 33.2556 118.372 33.5586 119.369 34.1647C120.366 34.7708 121.15 35.6325 121.722 36.7499C122.294 37.8674 122.579 39.1931 122.579 40.7272ZM120.82 40.7272C120.82 39.4677 120.603 38.4048 120.168 37.5383C119.738 36.6718 119.154 36.016 118.416 35.571C117.683 35.1259 116.862 34.9033 115.953 34.9033C115.044 34.9033 114.221 35.1259 113.483 35.571C112.75 36.016 112.166 36.6718 111.731 37.5383C111.301 38.4048 111.086 39.4677 111.086 40.7272C111.086 41.9867 111.301 43.0496 111.731 43.9161C112.166 44.7826 112.75 45.4384 113.483 45.8835C114.221 46.3285 115.044 46.5511 115.953 46.5511C116.862 46.5511 117.683 46.3285 118.416 45.8835C119.154 45.4384 119.738 44.7826 120.168 43.9161C120.603 43.0496 120.82 41.9867 120.82 40.7272Z"/>
<path d="M124.19 35.017V33.4545H135.449V35.017H130.728V47.9999H128.911V35.017H124.19Z"/>
<path d="M150.296 40.7272C150.296 42.2613 150.01 43.5871 149.438 44.7045C148.866 45.8219 148.082 46.6836 147.085 47.2897C146.088 47.8958 144.95 48.1988 143.669 48.1988C142.389 48.1988 141.25 47.8958 140.254 47.2897C139.257 46.6836 138.472 45.8219 137.901 44.7045C137.329 43.5871 137.043 42.2613 137.043 40.7272C137.043 39.1931 137.329 37.8674 137.901 36.7499C138.472 35.6325 139.257 34.7708 140.254 34.1647C141.25 33.5586 142.389 33.2556 143.669 33.2556C144.95 33.2556 146.088 33.5586 147.085 34.1647C148.082 34.7708 148.866 35.6325 149.438 36.7499C150.01 37.8674 150.296 39.1931 150.296 40.7272ZM148.536 40.7272C148.536 39.4677 148.319 38.4048 147.884 37.5383C147.454 36.6718 146.87 36.016 146.132 35.571C145.399 35.1259 144.578 34.9033 143.669 34.9033C142.76 34.9033 141.937 35.1259 141.199 35.571C140.466 36.016 139.882 36.6718 139.447 37.5383C139.017 38.4048 138.802 39.4677 138.802 40.7272C138.802 41.9867 139.017 43.0496 139.447 43.9161C139.882 44.7826 140.466 45.4384 141.199 45.8835C141.937 46.3285 142.76 46.5511 143.669 46.5511C144.578 46.5511 145.399 46.3285 146.132 45.8835C146.87 45.4384 147.454 44.7826 147.884 43.9161C148.319 43.0496 148.536 41.9867 148.536 40.7272Z"/>
</mask>
<path d="M51.9722 47.9999H50.0664L55.5785 33.4545H57.455L62.967 47.9999H61.0613L56.5754 35.7556H56.4581L51.9722 47.9999ZM52.6759 42.3181H60.3576V43.8806H52.6759V42.3181Z" fill="#3F4E65"/>
<path d="M65.3053 47.9999V33.4545H70.3776C71.5553 33.4545 72.5179 33.6604 73.2656 34.0724C74.0181 34.4796 74.5752 35.0312 74.9368 35.7272C75.2984 36.4232 75.4792 37.1997 75.4792 38.0568C75.4792 38.9138 75.2984 39.6926 74.9368 40.3934C74.5801 41.0942 74.0279 41.6529 73.2802 42.0695C72.5326 42.4815 71.5748 42.6874 70.4069 42.6874H66.7713V41.1249H70.3483C71.1546 41.1249 71.802 40.99 72.2907 40.7201C72.7794 40.4502 73.1336 40.0856 73.3535 39.6264C73.5783 39.1623 73.6907 38.6391 73.6907 38.0568C73.6907 37.4744 73.5783 36.9535 73.3535 36.4943C73.1336 36.035 72.7769 35.6751 72.2834 35.4147C71.7898 35.1496 71.135 35.017 70.3189 35.017H67.1231V47.9999H65.3053Z" fill="#3F4E65"/>
<path d="M83.2159 48.1988C82.2484 48.1988 81.3859 48.0378 80.6285 47.7158C79.8759 47.3939 79.2773 46.9464 78.8326 46.3735C78.3928 45.7959 78.1534 45.1259 78.1143 44.3636H79.9614C80.0005 44.8323 80.1667 45.2372 80.4599 45.5781C80.7531 45.9142 81.1367 46.1747 81.6107 46.3593C82.0847 46.544 82.61 46.6363 83.1866 46.6363C83.8316 46.6363 84.4034 46.5274 84.9018 46.3096C85.4002 46.0918 85.7912 45.7888 86.0746 45.4005C86.358 45.0122 86.4997 44.5624 86.4997 44.0511C86.4997 43.516 86.3629 43.0449 86.0892 42.6377C85.8156 42.2258 85.4149 41.9038 84.8871 41.6718C84.3594 41.4398 83.7144 41.3238 82.952 41.3238H81.7499V39.7613H82.952C83.5482 39.7613 84.0711 39.6571 84.5206 39.4488C84.9751 39.2405 85.3294 38.9469 85.5835 38.5681C85.8425 38.1893 85.972 37.7443 85.972 37.2329C85.972 36.7405 85.8596 36.312 85.6348 35.9474C85.41 35.5828 85.0924 35.2987 84.6819 35.0951C84.2763 34.8915 83.7974 34.7897 83.2452 34.7897C82.7273 34.7897 82.2386 34.882 81.7793 35.0667C81.3248 35.2466 80.9534 35.5094 80.6651 35.855C80.3768 36.196 80.2204 36.6079 80.196 37.0908H78.4368C78.4661 36.3285 78.7031 35.6609 79.1478 35.088C79.5925 34.5103 80.174 34.0605 80.8923 33.7386C81.6156 33.4166 82.4096 33.2556 83.2746 33.2556C84.203 33.2556 84.9995 33.4379 85.6641 33.8025C86.3287 34.1623 86.8393 34.6382 87.1961 35.23C87.5528 35.8219 87.7311 36.4611 87.7311 37.1477C87.7311 37.9668 87.5088 38.6652 87.0641 39.2428C86.6243 39.8205 86.0257 40.2206 85.2683 40.4431V40.5568C86.2163 40.7083 86.9566 41.0989 87.4893 41.7286C88.0219 42.3536 88.2882 43.1278 88.2882 44.0511C88.2882 44.8418 88.0659 45.552 87.6212 46.1818C87.1814 46.8068 86.5804 47.2992 85.818 47.659C85.0557 48.0189 84.1884 48.1988 83.2159 48.1988Z" fill="#3F4E65"/>
<path d="M91.55 33.4545H93.7197L98.8213 45.5283H98.9972L104.099 33.4545H106.268V47.9999H104.568V36.9488H104.421L99.7302 47.9999H98.0883L93.3972 36.9488H93.2506V47.9999H91.55V33.4545Z" fill="#3F4E65"/>
<path d="M122.579 40.7272C122.579 42.2613 122.294 43.5871 121.722 44.7045C121.15 45.8219 120.366 46.6836 119.369 47.2897C118.372 47.8958 117.233 48.1988 115.953 48.1988C114.673 48.1988 113.534 47.8958 112.537 47.2897C111.541 46.6836 110.756 45.8219 110.184 44.7045C109.613 43.5871 109.327 42.2613 109.327 40.7272C109.327 39.1931 109.613 37.8674 110.184 36.7499C110.756 35.6325 111.541 34.7708 112.537 34.1647C113.534 33.5586 114.673 33.2556 115.953 33.2556C117.233 33.2556 118.372 33.5586 119.369 34.1647C120.366 34.7708 121.15 35.6325 121.722 36.7499C122.294 37.8674 122.579 39.1931 122.579 40.7272ZM120.82 40.7272C120.82 39.4677 120.603 38.4048 120.168 37.5383C119.738 36.6718 119.154 36.016 118.416 35.571C117.683 35.1259 116.862 34.9033 115.953 34.9033C115.044 34.9033 114.221 35.1259 113.483 35.571C112.75 36.016 112.166 36.6718 111.731 37.5383C111.301 38.4048 111.086 39.4677 111.086 40.7272C111.086 41.9867 111.301 43.0496 111.731 43.9161C112.166 44.7826 112.75 45.4384 113.483 45.8835C114.221 46.3285 115.044 46.5511 115.953 46.5511C116.862 46.5511 117.683 46.3285 118.416 45.8835C119.154 45.4384 119.738 44.7826 120.168 43.9161C120.603 43.0496 120.82 41.9867 120.82 40.7272Z" fill="#3F4E65"/>
<path d="M124.19 35.017V33.4545H135.449V35.017H130.728V47.9999H128.911V35.017H124.19Z" fill="#3F4E65"/>
<path d="M150.296 40.7272C150.296 42.2613 150.01 43.5871 149.438 44.7045C148.866 45.8219 148.082 46.6836 147.085 47.2897C146.088 47.8958 144.95 48.1988 143.669 48.1988C142.389 48.1988 141.25 47.8958 140.254 47.2897C139.257 46.6836 138.472 45.8219 137.901 44.7045C137.329 43.5871 137.043 42.2613 137.043 40.7272C137.043 39.1931 137.329 37.8674 137.901 36.7499C138.472 35.6325 139.257 34.7708 140.254 34.1647C141.25 33.5586 142.389 33.2556 143.669 33.2556C144.95 33.2556 146.088 33.5586 147.085 34.1647C148.082 34.7708 148.866 35.6325 149.438 36.7499C150.01 37.8674 150.296 39.1931 150.296 40.7272ZM148.536 40.7272C148.536 39.4677 148.319 38.4048 147.884 37.5383C147.454 36.6718 146.87 36.016 146.132 35.571C145.399 35.1259 144.578 34.9033 143.669 34.9033C142.76 34.9033 141.937 35.1259 141.199 35.571C140.466 36.016 139.882 36.6718 139.447 37.5383C139.017 38.4048 138.802 39.4677 138.802 40.7272C138.802 41.9867 139.017 43.0496 139.447 43.9161C139.882 44.7826 140.466 45.4384 141.199 45.8835C141.937 46.3285 142.76 46.5511 143.669 46.5511C144.578 46.5511 145.399 46.3285 146.132 45.8835C146.87 45.4384 147.454 44.7826 147.884 43.9161C148.319 43.0496 148.536 41.9867 148.536 40.7272Z" fill="#3F4E65"/>
<path d="M51.9722 47.9999H50.0664L55.5785 33.4545H57.455L62.967 47.9999H61.0613L56.5754 35.7556H56.4581L51.9722 47.9999ZM52.6759 42.3181H60.3576V43.8806H52.6759V42.3181Z" stroke="#3F4E65" stroke-width="2" mask="url(#path-1-outside-1_10601_4919)"/>
<path d="M65.3053 47.9999V33.4545H70.3776C71.5553 33.4545 72.5179 33.6604 73.2656 34.0724C74.0181 34.4796 74.5752 35.0312 74.9368 35.7272C75.2984 36.4232 75.4792 37.1997 75.4792 38.0568C75.4792 38.9138 75.2984 39.6926 74.9368 40.3934C74.5801 41.0942 74.0279 41.6529 73.2802 42.0695C72.5326 42.4815 71.5748 42.6874 70.4069 42.6874H66.7713V41.1249H70.3483C71.1546 41.1249 71.802 40.99 72.2907 40.7201C72.7794 40.4502 73.1336 40.0856 73.3535 39.6264C73.5783 39.1623 73.6907 38.6391 73.6907 38.0568C73.6907 37.4744 73.5783 36.9535 73.3535 36.4943C73.1336 36.035 72.7769 35.6751 72.2834 35.4147C71.7898 35.1496 71.135 35.017 70.3189 35.017H67.1231V47.9999H65.3053Z" stroke="#3F4E65" stroke-width="2" mask="url(#path-1-outside-1_10601_4919)"/>
<path d="M83.2159 48.1988C82.2484 48.1988 81.3859 48.0378 80.6285 47.7158C79.8759 47.3939 79.2773 46.9464 78.8326 46.3735C78.3928 45.7959 78.1534 45.1259 78.1143 44.3636H79.9614C80.0005 44.8323 80.1667 45.2372 80.4599 45.5781C80.7531 45.9142 81.1367 46.1747 81.6107 46.3593C82.0847 46.544 82.61 46.6363 83.1866 46.6363C83.8316 46.6363 84.4034 46.5274 84.9018 46.3096C85.4002 46.0918 85.7912 45.7888 86.0746 45.4005C86.358 45.0122 86.4997 44.5624 86.4997 44.0511C86.4997 43.516 86.3629 43.0449 86.0892 42.6377C85.8156 42.2258 85.4149 41.9038 84.8871 41.6718C84.3594 41.4398 83.7144 41.3238 82.952 41.3238H81.7499V39.7613H82.952C83.5482 39.7613 84.0711 39.6571 84.5206 39.4488C84.9751 39.2405 85.3294 38.9469 85.5835 38.5681C85.8425 38.1893 85.972 37.7443 85.972 37.2329C85.972 36.7405 85.8596 36.312 85.6348 35.9474C85.41 35.5828 85.0924 35.2987 84.6819 35.0951C84.2763 34.8915 83.7974 34.7897 83.2452 34.7897C82.7273 34.7897 82.2386 34.882 81.7793 35.0667C81.3248 35.2466 80.9534 35.5094 80.6651 35.855C80.3768 36.196 80.2204 36.6079 80.196 37.0908H78.4368C78.4661 36.3285 78.7031 35.6609 79.1478 35.088C79.5925 34.5103 80.174 34.0605 80.8923 33.7386C81.6156 33.4166 82.4096 33.2556 83.2746 33.2556C84.203 33.2556 84.9995 33.4379 85.6641 33.8025C86.3287 34.1623 86.8393 34.6382 87.1961 35.23C87.5528 35.8219 87.7311 36.4611 87.7311 37.1477C87.7311 37.9668 87.5088 38.6652 87.0641 39.2428C86.6243 39.8205 86.0257 40.2206 85.2683 40.4431V40.5568C86.2163 40.7083 86.9566 41.0989 87.4893 41.7286C88.0219 42.3536 88.2882 43.1278 88.2882 44.0511C88.2882 44.8418 88.0659 45.552 87.6212 46.1818C87.1814 46.8068 86.5804 47.2992 85.818 47.659C85.0557 48.0189 84.1884 48.1988 83.2159 48.1988Z" stroke="#3F4E65" stroke-width="2" mask="url(#path-1-outside-1_10601_4919)"/>
<path d="M91.55 33.4545H93.7197L98.8213 45.5283H98.9972L104.099 33.4545H106.268V47.9999H104.568V36.9488H104.421L99.7302 47.9999H98.0883L93.3972 36.9488H93.2506V47.9999H91.55V33.4545Z" stroke="#3F4E65" stroke-width="2" mask="url(#path-1-outside-1_10601_4919)"/>
<path d="M122.579 40.7272C122.579 42.2613 122.294 43.5871 121.722 44.7045C121.15 45.8219 120.366 46.6836 119.369 47.2897C118.372 47.8958 117.233 48.1988 115.953 48.1988C114.673 48.1988 113.534 47.8958 112.537 47.2897C111.541 46.6836 110.756 45.8219 110.184 44.7045C109.613 43.5871 109.327 42.2613 109.327 40.7272C109.327 39.1931 109.613 37.8674 110.184 36.7499C110.756 35.6325 111.541 34.7708 112.537 34.1647C113.534 33.5586 114.673 33.2556 115.953 33.2556C117.233 33.2556 118.372 33.5586 119.369 34.1647C120.366 34.7708 121.15 35.6325 121.722 36.7499C122.294 37.8674 122.579 39.1931 122.579 40.7272ZM120.82 40.7272C120.82 39.4677 120.603 38.4048 120.168 37.5383C119.738 36.6718 119.154 36.016 118.416 35.571C117.683 35.1259 116.862 34.9033 115.953 34.9033C115.044 34.9033 114.221 35.1259 113.483 35.571C112.75 36.016 112.166 36.6718 111.731 37.5383C111.301 38.4048 111.086 39.4677 111.086 40.7272C111.086 41.9867 111.301 43.0496 111.731 43.9161C112.166 44.7826 112.75 45.4384 113.483 45.8835C114.221 46.3285 115.044 46.5511 115.953 46.5511C116.862 46.5511 117.683 46.3285 118.416 45.8835C119.154 45.4384 119.738 44.7826 120.168 43.9161C120.603 43.0496 120.82 41.9867 120.82 40.7272Z" stroke="#3F4E65" stroke-width="2" mask="url(#path-1-outside-1_10601_4919)"/>
<path d="M124.19 35.017V33.4545H135.449V35.017H130.728V47.9999H128.911V35.017H124.19Z" stroke="#3F4E65" stroke-width="2" mask="url(#path-1-outside-1_10601_4919)"/>
<path d="M150.296 40.7272C150.296 42.2613 150.01 43.5871 149.438 44.7045C148.866 45.8219 148.082 46.6836 147.085 47.2897C146.088 47.8958 144.95 48.1988 143.669 48.1988C142.389 48.1988 141.25 47.8958 140.254 47.2897C139.257 46.6836 138.472 45.8219 137.901 44.7045C137.329 43.5871 137.043 42.2613 137.043 40.7272C137.043 39.1931 137.329 37.8674 137.901 36.7499C138.472 35.6325 139.257 34.7708 140.254 34.1647C141.25 33.5586 142.389 33.2556 143.669 33.2556C144.95 33.2556 146.088 33.5586 147.085 34.1647C148.082 34.7708 148.866 35.6325 149.438 36.7499C150.01 37.8674 150.296 39.1931 150.296 40.7272ZM148.536 40.7272C148.536 39.4677 148.319 38.4048 147.884 37.5383C147.454 36.6718 146.87 36.016 146.132 35.571C145.399 35.1259 144.578 34.9033 143.669 34.9033C142.76 34.9033 141.937 35.1259 141.199 35.571C140.466 36.016 139.882 36.6718 139.447 37.5383C139.017 38.4048 138.802 39.4677 138.802 40.7272C138.802 41.9867 139.017 43.0496 139.447 43.9161C139.882 44.7826 140.466 45.4384 141.199 45.8835C141.937 46.3285 142.76 46.5511 143.669 46.5511C144.578 46.5511 145.399 46.3285 146.132 45.8835C146.87 45.4384 147.454 44.7826 147.884 43.9161C148.319 43.0496 148.536 41.9867 148.536 40.7272Z" stroke="#3F4E65" stroke-width="2" mask="url(#path-1-outside-1_10601_4919)"/>
<g clip-path="url(#clip0_10601_4919)">
<path d="M43.5395 38.5625C43.217 38.5625 42.8945 38.5625 42.572 38.7188L41.6044 35.75C42.2495 35.4375 42.8945 35.4375 43.5395 35.4375C44.6683 35.4375 45.7972 35.5938 46.926 35.9063C47.7322 36.2188 48.6998 35.75 49.0223 34.9687C49.3448 34.1875 48.8611 33.25 48.0548 32.9375C46.6034 32.4687 44.9909 32.3125 43.5395 32.3125C42.572 32.3125 41.4432 32.4687 40.4756 32.625L36.928 22.4687C36.7667 21.8437 36.1217 21.375 35.4766 21.375H29.0263C28.0588 21.375 27.4137 22 27.4137 22.9375C27.4137 23.875 28.0588 24.5 29.0263 24.5H34.3478L35.4766 27.625H27.4137C26.7687 27.625 26.2849 27.9375 25.9624 28.4062L25.3174 29.3438C23.0598 32.9375 18.8671 34.6562 14.6744 33.875C12.7393 32.9375 10.3204 32.3125 8.06278 32.3125C7.09523 32.3125 6.4502 32.9375 6.4502 33.875C6.4502 34.8125 7.09523 35.4375 8.06278 35.4375C14.3518 35.4375 19.3508 40.2812 19.3508 46.375C19.3508 47.3125 19.9959 47.9375 20.9634 47.9375H30.6389C31.6064 47.9375 32.2515 47.3125 32.2515 46.375C32.2515 42.1562 34.8316 38.4063 38.5405 36.6875L39.5081 39.6563C37.0892 41.0625 35.4766 43.5625 35.4766 46.375C35.4766 50.75 39.0243 54.1875 43.5395 54.1875C48.0548 54.1875 51.6024 50.75 51.6024 46.375C51.6024 42 48.0548 38.5625 43.5395 38.5625Z" fill="#3F4E65"/>
<path d="M8.0629 38.5625C3.54768 38.5625 0 42 0 46.375C0 50.75 3.54768 54.1875 8.0629 54.1875C12.5781 54.1875 16.1258 50.75 16.1258 46.375C16.1258 42 12.5781 38.5625 8.0629 38.5625Z" fill="#3F4E65"/>
</g>
<defs>
<clipPath id="clip0_10601_4919">
<rect width="51.6026" height="50" fill="white" transform="translate(0 12)"/>
</clipPath>
</defs>
</svg>
