<svg width="157" height="50" viewBox="0 0 157 50" fill="none" xmlns="http://www.w3.org/2000/svg">
<mask id="path-1-outside-1_10602_5204" maskUnits="userSpaceOnUse" x="53" y="22" width="104" height="17" fill="black">
<rect fill="white" x="53" y="22" width="104" height="17"/>
<path d="M56.9058 37.7443H55L60.5121 23.1989H62.3885L67.9006 37.7443H65.9949L61.509 25.5H61.3917L56.9058 37.7443ZM57.6094 32.0625H65.2912V33.625H57.6094V32.0625Z"/>
<path d="M70.2389 37.7443V23.1989H75.3112C76.4889 23.1989 77.4515 23.4048 78.1992 23.8168C78.9517 24.224 79.5088 24.7756 79.8704 25.4716C80.232 26.1676 80.4128 26.9441 80.4128 27.8011C80.4128 28.6581 80.232 29.437 79.8704 30.1378C79.5137 30.8385 78.9615 31.3973 78.2138 31.8139C77.4662 32.2259 76.5084 32.4318 75.3405 32.4318H71.7049V30.8693H75.2819C76.0882 30.8693 76.7356 30.7344 77.2243 30.4645C77.7129 30.1946 78.0672 29.83 78.2871 29.3707C78.5119 28.9067 78.6243 28.3835 78.6243 27.8011C78.6243 27.2188 78.5119 26.6979 78.2871 26.2386C78.0672 25.7794 77.7105 25.4195 77.217 25.1591C76.7234 24.8939 76.0686 24.7614 75.2525 24.7614H72.0567V37.7443H70.2389Z"/>
<path d="M88.1495 37.9432C87.182 37.9432 86.3195 37.7822 85.5621 37.4602C84.8095 37.1383 84.2109 36.6908 83.7662 36.1179C83.3264 35.5402 83.087 34.8703 83.0479 34.108H84.895C84.9341 34.5767 85.1003 34.9815 85.3935 35.3224C85.6867 35.6586 86.0703 35.919 86.5443 36.1037C87.0183 36.2884 87.5436 36.3807 88.1202 36.3807C88.7652 36.3807 89.337 36.2718 89.8354 36.054C90.3338 35.8362 90.7248 35.5331 91.0082 35.1449C91.2916 34.7566 91.4333 34.3068 91.4333 33.7955C91.4333 33.2604 91.2965 32.7893 91.0228 32.3821C90.7492 31.9702 90.3485 31.6482 89.8207 31.4162C89.293 31.1842 88.648 31.0682 87.8856 31.0682H86.6835V29.5057H87.8856C88.4818 29.5057 89.0047 29.4015 89.4542 29.1932C89.9087 28.9848 90.263 28.6913 90.5171 28.3125C90.7761 27.9337 90.9056 27.4886 90.9056 26.9773C90.9056 26.4848 90.7932 26.0563 90.5684 25.6918C90.3436 25.3272 90.026 25.0431 89.6155 24.8395C89.2099 24.6359 88.731 24.5341 88.1788 24.5341C87.6609 24.5341 87.1722 24.6264 86.7129 24.8111C86.2584 24.991 85.887 25.2538 85.5987 25.5994C85.3104 25.9403 85.154 26.3523 85.1296 26.8352H83.3704C83.3997 26.0729 83.6367 25.4053 84.0814 24.8324C84.5261 24.2547 85.1076 23.8049 85.8259 23.483C86.5492 23.161 87.3432 23 88.2082 23C89.1366 23 89.9331 23.1823 90.5977 23.5469C91.2623 23.9067 91.7729 24.3826 92.1297 24.9744C92.4864 25.5663 92.6647 26.2055 92.6647 26.892C92.6647 27.7112 92.4424 28.4096 91.9977 28.9872C91.5579 29.5649 90.9593 29.965 90.2019 30.1875V30.3011C91.1499 30.4527 91.8902 30.8433 92.4229 31.473C92.9555 32.098 93.2218 32.8722 93.2218 33.7955C93.2218 34.5862 92.9995 35.2964 92.5548 35.9261C92.115 36.5511 91.5139 37.0436 90.7516 37.4034C89.9893 37.7633 89.122 37.9432 88.1495 37.9432Z"/>
<path d="M96.4836 23.1989H98.6533L103.755 35.2727H103.931L109.032 23.1989H111.202V37.7443H109.502V26.6932H109.355L104.664 37.7443H103.022L98.3308 26.6932H98.1842V37.7443H96.4836V23.1989Z"/>
<path d="M127.513 30.4716C127.513 32.0057 127.227 33.3314 126.655 34.4489C126.084 35.5663 125.299 36.428 124.302 37.0341C123.306 37.6402 122.167 37.9432 120.887 37.9432C119.606 37.9432 118.468 37.6402 117.471 37.0341C116.474 36.428 115.69 35.5663 115.118 34.4489C114.546 33.3314 114.26 32.0057 114.26 30.4716C114.26 28.9375 114.546 27.6117 115.118 26.4943C115.69 25.3769 116.474 24.5152 117.471 23.9091C118.468 23.303 119.606 23 120.887 23C122.167 23 123.306 23.303 124.302 23.9091C125.299 24.5152 126.084 25.3769 126.655 26.4943C127.227 27.6117 127.513 28.9375 127.513 30.4716ZM125.754 30.4716C125.754 29.2121 125.536 28.1491 125.101 27.2827C124.671 26.4162 124.087 25.7604 123.35 25.3153C122.617 24.8703 121.796 24.6477 120.887 24.6477C119.978 24.6477 119.154 24.8703 118.417 25.3153C117.684 25.7604 117.1 26.4162 116.665 27.2827C116.235 28.1491 116.02 29.2121 116.02 30.4716C116.02 31.7311 116.235 32.794 116.665 33.6605C117.1 34.527 117.684 35.1828 118.417 35.6278C119.154 36.0729 119.978 36.2955 120.887 36.2955C121.796 36.2955 122.617 36.0729 123.35 35.6278C124.087 35.1828 124.671 34.527 125.101 33.6605C125.536 32.794 125.754 31.7311 125.754 30.4716Z"/>
<path d="M129.124 24.7614V23.1989H140.382V24.7614H135.662V37.7443H133.844V24.7614H129.124Z"/>
<path d="M155.229 30.4716C155.229 32.0057 154.943 33.3314 154.372 34.4489C153.8 35.5663 153.016 36.428 152.019 37.0341C151.022 37.6402 149.883 37.9432 148.603 37.9432C147.323 37.9432 146.184 37.6402 145.187 37.0341C144.19 36.428 143.406 35.5663 142.834 34.4489C142.263 33.3314 141.977 32.0057 141.977 30.4716C141.977 28.9375 142.263 27.6117 142.834 26.4943C143.406 25.3769 144.19 24.5152 145.187 23.9091C146.184 23.303 147.323 23 148.603 23C149.883 23 151.022 23.303 152.019 23.9091C153.016 24.5152 153.8 25.3769 154.372 26.4943C154.943 27.6117 155.229 28.9375 155.229 30.4716ZM153.47 30.4716C153.47 29.2121 153.253 28.1491 152.818 27.2827C152.388 26.4162 151.804 25.7604 151.066 25.3153C150.333 24.8703 149.512 24.6477 148.603 24.6477C147.694 24.6477 146.871 24.8703 146.133 25.3153C145.4 25.7604 144.816 26.4162 144.381 27.2827C143.951 28.1491 143.736 29.2121 143.736 30.4716C143.736 31.7311 143.951 32.794 144.381 33.6605C144.816 34.527 145.4 35.1828 146.133 35.6278C146.871 36.0729 147.694 36.2955 148.603 36.2955C149.512 36.2955 150.333 36.0729 151.066 35.6278C151.804 35.1828 152.388 34.527 152.818 33.6605C153.253 32.794 153.47 31.7311 153.47 30.4716Z"/>
</mask>
<path d="M56.9058 37.7443H55L60.5121 23.1989H62.3885L67.9006 37.7443H65.9949L61.509 25.5H61.3917L56.9058 37.7443ZM57.6094 32.0625H65.2912V33.625H57.6094V32.0625Z" fill="#3F4E65"/>
<path d="M70.2389 37.7443V23.1989H75.3112C76.4889 23.1989 77.4515 23.4048 78.1992 23.8168C78.9517 24.224 79.5088 24.7756 79.8704 25.4716C80.232 26.1676 80.4128 26.9441 80.4128 27.8011C80.4128 28.6581 80.232 29.437 79.8704 30.1378C79.5137 30.8385 78.9615 31.3973 78.2138 31.8139C77.4662 32.2259 76.5084 32.4318 75.3405 32.4318H71.7049V30.8693H75.2819C76.0882 30.8693 76.7356 30.7344 77.2243 30.4645C77.7129 30.1946 78.0672 29.83 78.2871 29.3707C78.5119 28.9067 78.6243 28.3835 78.6243 27.8011C78.6243 27.2188 78.5119 26.6979 78.2871 26.2386C78.0672 25.7794 77.7105 25.4195 77.217 25.1591C76.7234 24.8939 76.0686 24.7614 75.2525 24.7614H72.0567V37.7443H70.2389Z" fill="#3F4E65"/>
<path d="M88.1495 37.9432C87.182 37.9432 86.3195 37.7822 85.5621 37.4602C84.8095 37.1383 84.2109 36.6908 83.7662 36.1179C83.3264 35.5402 83.087 34.8703 83.0479 34.108H84.895C84.9341 34.5767 85.1003 34.9815 85.3935 35.3224C85.6867 35.6586 86.0703 35.919 86.5443 36.1037C87.0183 36.2884 87.5436 36.3807 88.1202 36.3807C88.7652 36.3807 89.337 36.2718 89.8354 36.054C90.3338 35.8362 90.7248 35.5331 91.0082 35.1449C91.2916 34.7566 91.4333 34.3068 91.4333 33.7955C91.4333 33.2604 91.2965 32.7893 91.0228 32.3821C90.7492 31.9702 90.3485 31.6482 89.8207 31.4162C89.293 31.1842 88.648 31.0682 87.8856 31.0682H86.6835V29.5057H87.8856C88.4818 29.5057 89.0047 29.4015 89.4542 29.1932C89.9087 28.9848 90.263 28.6913 90.5171 28.3125C90.7761 27.9337 90.9056 27.4886 90.9056 26.9773C90.9056 26.4848 90.7932 26.0563 90.5684 25.6918C90.3436 25.3272 90.026 25.0431 89.6155 24.8395C89.2099 24.6359 88.731 24.5341 88.1788 24.5341C87.6609 24.5341 87.1722 24.6264 86.7129 24.8111C86.2584 24.991 85.887 25.2538 85.5987 25.5994C85.3104 25.9403 85.154 26.3523 85.1296 26.8352H83.3704C83.3997 26.0729 83.6367 25.4053 84.0814 24.8324C84.5261 24.2547 85.1076 23.8049 85.8259 23.483C86.5492 23.161 87.3432 23 88.2082 23C89.1366 23 89.9331 23.1823 90.5977 23.5469C91.2623 23.9067 91.7729 24.3826 92.1297 24.9744C92.4864 25.5663 92.6647 26.2055 92.6647 26.892C92.6647 27.7112 92.4424 28.4096 91.9977 28.9872C91.5579 29.5649 90.9593 29.965 90.2019 30.1875V30.3011C91.1499 30.4527 91.8902 30.8433 92.4229 31.473C92.9555 32.098 93.2218 32.8722 93.2218 33.7955C93.2218 34.5862 92.9995 35.2964 92.5548 35.9261C92.115 36.5511 91.5139 37.0436 90.7516 37.4034C89.9893 37.7633 89.122 37.9432 88.1495 37.9432Z" fill="#3F4E65"/>
<path d="M96.4836 23.1989H98.6533L103.755 35.2727H103.931L109.032 23.1989H111.202V37.7443H109.502V26.6932H109.355L104.664 37.7443H103.022L98.3308 26.6932H98.1842V37.7443H96.4836V23.1989Z" fill="#3F4E65"/>
<path d="M127.513 30.4716C127.513 32.0057 127.227 33.3314 126.655 34.4489C126.084 35.5663 125.299 36.428 124.302 37.0341C123.306 37.6402 122.167 37.9432 120.887 37.9432C119.606 37.9432 118.468 37.6402 117.471 37.0341C116.474 36.428 115.69 35.5663 115.118 34.4489C114.546 33.3314 114.26 32.0057 114.26 30.4716C114.26 28.9375 114.546 27.6117 115.118 26.4943C115.69 25.3769 116.474 24.5152 117.471 23.9091C118.468 23.303 119.606 23 120.887 23C122.167 23 123.306 23.303 124.302 23.9091C125.299 24.5152 126.084 25.3769 126.655 26.4943C127.227 27.6117 127.513 28.9375 127.513 30.4716ZM125.754 30.4716C125.754 29.2121 125.536 28.1491 125.101 27.2827C124.671 26.4162 124.087 25.7604 123.35 25.3153C122.617 24.8703 121.796 24.6477 120.887 24.6477C119.978 24.6477 119.154 24.8703 118.417 25.3153C117.684 25.7604 117.1 26.4162 116.665 27.2827C116.235 28.1491 116.02 29.2121 116.02 30.4716C116.02 31.7311 116.235 32.794 116.665 33.6605C117.1 34.527 117.684 35.1828 118.417 35.6278C119.154 36.0729 119.978 36.2955 120.887 36.2955C121.796 36.2955 122.617 36.0729 123.35 35.6278C124.087 35.1828 124.671 34.527 125.101 33.6605C125.536 32.794 125.754 31.7311 125.754 30.4716Z" fill="#3F4E65"/>
<path d="M129.124 24.7614V23.1989H140.382V24.7614H135.662V37.7443H133.844V24.7614H129.124Z" fill="#3F4E65"/>
<path d="M155.229 30.4716C155.229 32.0057 154.943 33.3314 154.372 34.4489C153.8 35.5663 153.016 36.428 152.019 37.0341C151.022 37.6402 149.883 37.9432 148.603 37.9432C147.323 37.9432 146.184 37.6402 145.187 37.0341C144.19 36.428 143.406 35.5663 142.834 34.4489C142.263 33.3314 141.977 32.0057 141.977 30.4716C141.977 28.9375 142.263 27.6117 142.834 26.4943C143.406 25.3769 144.19 24.5152 145.187 23.9091C146.184 23.303 147.323 23 148.603 23C149.883 23 151.022 23.303 152.019 23.9091C153.016 24.5152 153.8 25.3769 154.372 26.4943C154.943 27.6117 155.229 28.9375 155.229 30.4716ZM153.47 30.4716C153.47 29.2121 153.253 28.1491 152.818 27.2827C152.388 26.4162 151.804 25.7604 151.066 25.3153C150.333 24.8703 149.512 24.6477 148.603 24.6477C147.694 24.6477 146.871 24.8703 146.133 25.3153C145.4 25.7604 144.816 26.4162 144.381 27.2827C143.951 28.1491 143.736 29.2121 143.736 30.4716C143.736 31.7311 143.951 32.794 144.381 33.6605C144.816 34.527 145.4 35.1828 146.133 35.6278C146.871 36.0729 147.694 36.2955 148.603 36.2955C149.512 36.2955 150.333 36.0729 151.066 35.6278C151.804 35.1828 152.388 34.527 152.818 33.6605C153.253 32.794 153.47 31.7311 153.47 30.4716Z" fill="#3F4E65"/>
<path d="M56.9058 37.7443H55L60.5121 23.1989H62.3885L67.9006 37.7443H65.9949L61.509 25.5H61.3917L56.9058 37.7443ZM57.6094 32.0625H65.2912V33.625H57.6094V32.0625Z" stroke="white" stroke-width="2" mask="url(#path-1-outside-1_10602_5204)"/>
<path d="M70.2389 37.7443V23.1989H75.3112C76.4889 23.1989 77.4515 23.4048 78.1992 23.8168C78.9517 24.224 79.5088 24.7756 79.8704 25.4716C80.232 26.1676 80.4128 26.9441 80.4128 27.8011C80.4128 28.6581 80.232 29.437 79.8704 30.1378C79.5137 30.8385 78.9615 31.3973 78.2138 31.8139C77.4662 32.2259 76.5084 32.4318 75.3405 32.4318H71.7049V30.8693H75.2819C76.0882 30.8693 76.7356 30.7344 77.2243 30.4645C77.7129 30.1946 78.0672 29.83 78.2871 29.3707C78.5119 28.9067 78.6243 28.3835 78.6243 27.8011C78.6243 27.2188 78.5119 26.6979 78.2871 26.2386C78.0672 25.7794 77.7105 25.4195 77.217 25.1591C76.7234 24.8939 76.0686 24.7614 75.2525 24.7614H72.0567V37.7443H70.2389Z" stroke="white" stroke-width="2" mask="url(#path-1-outside-1_10602_5204)"/>
<path d="M88.1495 37.9432C87.182 37.9432 86.3195 37.7822 85.5621 37.4602C84.8095 37.1383 84.2109 36.6908 83.7662 36.1179C83.3264 35.5402 83.087 34.8703 83.0479 34.108H84.895C84.9341 34.5767 85.1003 34.9815 85.3935 35.3224C85.6867 35.6586 86.0703 35.919 86.5443 36.1037C87.0183 36.2884 87.5436 36.3807 88.1202 36.3807C88.7652 36.3807 89.337 36.2718 89.8354 36.054C90.3338 35.8362 90.7248 35.5331 91.0082 35.1449C91.2916 34.7566 91.4333 34.3068 91.4333 33.7955C91.4333 33.2604 91.2965 32.7893 91.0228 32.3821C90.7492 31.9702 90.3485 31.6482 89.8207 31.4162C89.293 31.1842 88.648 31.0682 87.8856 31.0682H86.6835V29.5057H87.8856C88.4818 29.5057 89.0047 29.4015 89.4542 29.1932C89.9087 28.9848 90.263 28.6913 90.5171 28.3125C90.7761 27.9337 90.9056 27.4886 90.9056 26.9773C90.9056 26.4848 90.7932 26.0563 90.5684 25.6918C90.3436 25.3272 90.026 25.0431 89.6155 24.8395C89.2099 24.6359 88.731 24.5341 88.1788 24.5341C87.6609 24.5341 87.1722 24.6264 86.7129 24.8111C86.2584 24.991 85.887 25.2538 85.5987 25.5994C85.3104 25.9403 85.154 26.3523 85.1296 26.8352H83.3704C83.3997 26.0729 83.6367 25.4053 84.0814 24.8324C84.5261 24.2547 85.1076 23.8049 85.8259 23.483C86.5492 23.161 87.3432 23 88.2082 23C89.1366 23 89.9331 23.1823 90.5977 23.5469C91.2623 23.9067 91.7729 24.3826 92.1297 24.9744C92.4864 25.5663 92.6647 26.2055 92.6647 26.892C92.6647 27.7112 92.4424 28.4096 91.9977 28.9872C91.5579 29.5649 90.9593 29.965 90.2019 30.1875V30.3011C91.1499 30.4527 91.8902 30.8433 92.4229 31.473C92.9555 32.098 93.2218 32.8722 93.2218 33.7955C93.2218 34.5862 92.9995 35.2964 92.5548 35.9261C92.115 36.5511 91.5139 37.0436 90.7516 37.4034C89.9893 37.7633 89.122 37.9432 88.1495 37.9432Z" stroke="white" stroke-width="2" mask="url(#path-1-outside-1_10602_5204)"/>
<path d="M96.4836 23.1989H98.6533L103.755 35.2727H103.931L109.032 23.1989H111.202V37.7443H109.502V26.6932H109.355L104.664 37.7443H103.022L98.3308 26.6932H98.1842V37.7443H96.4836V23.1989Z" stroke="white" stroke-width="2" mask="url(#path-1-outside-1_10602_5204)"/>
<path d="M127.513 30.4716C127.513 32.0057 127.227 33.3314 126.655 34.4489C126.084 35.5663 125.299 36.428 124.302 37.0341C123.306 37.6402 122.167 37.9432 120.887 37.9432C119.606 37.9432 118.468 37.6402 117.471 37.0341C116.474 36.428 115.69 35.5663 115.118 34.4489C114.546 33.3314 114.26 32.0057 114.26 30.4716C114.26 28.9375 114.546 27.6117 115.118 26.4943C115.69 25.3769 116.474 24.5152 117.471 23.9091C118.468 23.303 119.606 23 120.887 23C122.167 23 123.306 23.303 124.302 23.9091C125.299 24.5152 126.084 25.3769 126.655 26.4943C127.227 27.6117 127.513 28.9375 127.513 30.4716ZM125.754 30.4716C125.754 29.2121 125.536 28.1491 125.101 27.2827C124.671 26.4162 124.087 25.7604 123.35 25.3153C122.617 24.8703 121.796 24.6477 120.887 24.6477C119.978 24.6477 119.154 24.8703 118.417 25.3153C117.684 25.7604 117.1 26.4162 116.665 27.2827C116.235 28.1491 116.02 29.2121 116.02 30.4716C116.02 31.7311 116.235 32.794 116.665 33.6605C117.1 34.527 117.684 35.1828 118.417 35.6278C119.154 36.0729 119.978 36.2955 120.887 36.2955C121.796 36.2955 122.617 36.0729 123.35 35.6278C124.087 35.1828 124.671 34.527 125.101 33.6605C125.536 32.794 125.754 31.7311 125.754 30.4716Z" stroke="white" stroke-width="2" mask="url(#path-1-outside-1_10602_5204)"/>
<path d="M129.124 24.7614V23.1989H140.382V24.7614H135.662V37.7443H133.844V24.7614H129.124Z" stroke="white" stroke-width="2" mask="url(#path-1-outside-1_10602_5204)"/>
<path d="M155.229 30.4716C155.229 32.0057 154.943 33.3314 154.372 34.4489C153.8 35.5663 153.016 36.428 152.019 37.0341C151.022 37.6402 149.883 37.9432 148.603 37.9432C147.323 37.9432 146.184 37.6402 145.187 37.0341C144.19 36.428 143.406 35.5663 142.834 34.4489C142.263 33.3314 141.977 32.0057 141.977 30.4716C141.977 28.9375 142.263 27.6117 142.834 26.4943C143.406 25.3769 144.19 24.5152 145.187 23.9091C146.184 23.303 147.323 23 148.603 23C149.883 23 151.022 23.303 152.019 23.9091C153.016 24.5152 153.8 25.3769 154.372 26.4943C154.943 27.6117 155.229 28.9375 155.229 30.4716ZM153.47 30.4716C153.47 29.2121 153.253 28.1491 152.818 27.2827C152.388 26.4162 151.804 25.7604 151.066 25.3153C150.333 24.8703 149.512 24.6477 148.603 24.6477C147.694 24.6477 146.871 24.8703 146.133 25.3153C145.4 25.7604 144.816 26.4162 144.381 27.2827C143.951 28.1491 143.736 29.2121 143.736 30.4716C143.736 31.7311 143.951 32.794 144.381 33.6605C144.816 34.527 145.4 35.1828 146.133 35.6278C146.871 36.0729 147.694 36.2955 148.603 36.2955C149.512 36.2955 150.333 36.0729 151.066 35.6278C151.804 35.1828 152.388 34.527 152.818 33.6605C153.253 32.794 153.47 31.7311 153.47 30.4716Z" stroke="white" stroke-width="2" mask="url(#path-1-outside-1_10602_5204)"/>
<g clip-path="url(#clip0_10602_5204)">
<path d="M43.5395 26.5625C43.217 26.5625 42.8945 26.5625 42.572 26.7188L41.6044 23.75C42.2495 23.4375 42.8945 23.4375 43.5395 23.4375C44.6683 23.4375 45.7972 23.5938 46.926 23.9063C47.7322 24.2188 48.6998 23.75 49.0223 22.9687C49.3448 22.1875 48.8611 21.25 48.0548 20.9375C46.6034 20.4687 44.9909 20.3125 43.5395 20.3125C42.572 20.3125 41.4432 20.4687 40.4756 20.625L36.928 10.4687C36.7667 9.84375 36.1217 9.375 35.4766 9.375H29.0263C28.0588 9.375 27.4137 10 27.4137 10.9375C27.4137 11.875 28.0588 12.5 29.0263 12.5H34.3478L35.4766 15.625H27.4137C26.7687 15.625 26.2849 15.9375 25.9624 16.4062L25.3174 17.3438C23.0598 20.9375 18.8671 22.6562 14.6744 21.875C12.7393 20.9375 10.3204 20.3125 8.06278 20.3125C7.09523 20.3125 6.4502 20.9375 6.4502 21.875C6.4502 22.8125 7.09523 23.4375 8.06278 23.4375C14.3518 23.4375 19.3508 28.2812 19.3508 34.375C19.3508 35.3125 19.9959 35.9375 20.9634 35.9375H30.6389C31.6064 35.9375 32.2515 35.3125 32.2515 34.375C32.2515 30.1562 34.8316 26.4063 38.5405 24.6875L39.5081 27.6563C37.0892 29.0625 35.4766 31.5625 35.4766 34.375C35.4766 38.75 39.0243 42.1875 43.5395 42.1875C48.0548 42.1875 51.6024 38.75 51.6024 34.375C51.6024 30 48.0548 26.5625 43.5395 26.5625Z" fill="white"/>
<path d="M8.0629 26.5625C3.54768 26.5625 0 30 0 34.375C0 38.75 3.54768 42.1875 8.0629 42.1875C12.5781 42.1875 16.1258 38.75 16.1258 34.375C16.1258 30 12.5781 26.5625 8.0629 26.5625Z" fill="white"/>
</g>
<defs>
<clipPath id="clip0_10602_5204">
<rect width="51.6026" height="50" fill="white"/>
</clipPath>
</defs>
</svg>
